<svg xmlns="http://www.w3.org/2000/svg" width="32" height="32" fill="none"><path fill="#fff" d="M10.277 8.391a4 4 0 1 0-1.886 1.886l2.047 2.046A6.64 6.64 0 0 0 9.333 16c0 1.359.407 2.623 1.105 3.677L8.69 21.424A2.67 2.67 0 0 0 5.333 24a2.667 2.667 0 1 0 5.243-.69l1.748-1.748A6.64 6.64 0 0 0 16 22.667a6.64 6.64 0 0 0 3.677-1.105l2.046 2.047a4 4 0 1 0 1.886-1.886l-2.047-2.046A6.64 6.64 0 0 0 22.667 16a6.64 6.64 0 0 0-1.105-3.677l1.747-1.747A2.67 2.67 0 0 0 26.667 8a2.667 2.667 0 1 0-5.243.69l-1.747 1.748A6.64 6.64 0 0 0 16 9.333a6.64 6.64 0 0 0-3.676 1.105z"/></svg>