<svg xmlns="http://www.w3.org/2000/svg" width="32" height="32" fill="none"><path fill="#fff" fill-rule="evenodd" d="M16 1.333C7.9 1.333 1.333 7.9 1.333 16S7.9 30.667 16 30.667 30.667 24.1 30.667 16 24.1 1.333 16 1.333m6.84 7.826a3.96 3.96 0 0 0-5.596 0 1.333 1.333 0 0 0 1.886 1.886 1.29 1.29 0 0 1 1.825 1.825l-3.711 3.711c-.293.294-.69.417-1.077.368a1.333 1.333 0 0 0-.334 2.646 3.95 3.95 0 0 0 3.297-1.128l3.71-3.711a3.96 3.96 0 0 0 0-5.597m-6.673 3.246a3.95 3.95 0 0 0-3.297 1.128l-3.71 3.711a3.958 3.958 0 1 0 5.596 5.597 1.333 1.333 0 1 0-1.886-1.886 1.29 1.29 0 0 1-1.825-1.825l3.71-3.712c.294-.293.692-.416 1.078-.367a1.333 1.333 0 0 0 .334-2.646" clip-rule="evenodd"/></svg>