<svg xmlns="http://www.w3.org/2000/svg" width="160" height="40" fill="none"><path fill="#fff" d="M41.321 11.566h3.55V25.09h6.577v3.052H41.321zM53.046 25.326a6.57 6.57 0 0 1-.794-3.266 6.57 6.57 0 0 1 .794-3.265 5.4 5.4 0 0 1 2.248-2.188 7.77 7.77 0 0 1 6.745 0 5.45 5.45 0 0 1 2.248 2.188 6.6 6.6 0 0 1 .79 3.265 6.6 6.6 0 0 1-.79 3.28 5.5 5.5 0 0 1-2.248 2.174 7.77 7.77 0 0 1-6.745 0 5.4 5.4 0 0 1-2.248-2.188m8.65-3.266a3.8 3.8 0 0 0-.831-2.531 2.74 2.74 0 0 0-2.199-.958 2.7 2.7 0 0 0-2.188.971 3.8 3.8 0 0 0-.817 2.532 3.8 3.8 0 0 0 .817 2.531 2.71 2.71 0 0 0 2.188.971 2.74 2.74 0 0 0 2.199-.984 3.8 3.8 0 0 0 .83-2.532M67.242 25.326a6.57 6.57 0 0 1-.794-3.266 6.57 6.57 0 0 1 .794-3.265 5.4 5.4 0 0 1 2.249-2.188 7.76 7.76 0 0 1 6.74 0 5.4 5.4 0 0 1 2.25 2.188 6.57 6.57 0 0 1 .793 3.265 6.56 6.56 0 0 1-.794 3.28 5.44 5.44 0 0 1-2.248 2.174 7.76 7.76 0 0 1-6.741 0 5.4 5.4 0 0 1-2.249-2.188m8.65-3.266a3.8 3.8 0 0 0-.817-2.531 2.98 2.98 0 0 0-4.404 0 3.8 3.8 0 0 0-.8 2.531 3.8 3.8 0 0 0 .814 2.532 2.98 2.98 0 0 0 4.403 0c.563-.72.849-1.618.804-2.532M84.454 11.566v9.594l4.78-5.18h3.74l-4.337 4.756 4.583 7.405h-3.866l-3.075-4.92-1.825 1.962v2.958H81.12V11.566zM97.327 25.396a3.1 3.1 0 0 0 1.82.514 3.46 3.46 0 0 0 1.669-.334 1.065 1.065 0 0 0 .627-1 .87.87 0 0 0-.284-.711 1.8 1.8 0 0 0-.804-.334c-.333-.07-.914-.153-1.704-.246a17 17 0 0 1-2.669-.544 3.77 3.77 0 0 1-1.704-1.04 2.73 2.73 0 0 1-.64-1.896 3.5 3.5 0 0 1 .666-2.094 4.17 4.17 0 0 1 1.832-1.408 7 7 0 0 1 2.722-.497q2.485.024 4.002 1.064a3.6 3.6 0 0 1 1.645 2.889h-3.169a1.5 1.5 0 0 0-.72-1.124 2.93 2.93 0 0 0-1.668-.437 2.9 2.9 0 0 0-1.525.353 1.07 1.07 0 0 0-.58.948.72.72 0 0 0 .307.637c.243.158.517.264.804.31.333.06.884.133 1.668.21q2.461.287 3.776 1.054c.873.514 1.31 1.391 1.31 2.639a3.3 3.3 0 0 1-.697 2.081 4.4 4.4 0 0 1-1.941 1.384c-.92.34-1.895.506-2.875.487q-2.532 0-4.117-1.124a3.81 3.81 0 0 1-1.667-3.065h3.145a1.71 1.71 0 0 0 .77 1.284M112.397 28.285a6.84 6.84 0 0 1-3.312-.77 5.33 5.33 0 0 1-2.188-2.189 6.8 6.8 0 0 1-.768-3.266 6.74 6.74 0 0 1 .768-3.275 5.33 5.33 0 0 1 2.201-2.178 6.9 6.9 0 0 1 3.336-.77q2.438 0 3.973 1.243a5.34 5.34 0 0 1 1.894 3.443h-3.466a2.54 2.54 0 0 0-.85-1.431 2.4 2.4 0 0 0-1.588-.534 2.54 2.54 0 0 0-2.081.97 3.9 3.9 0 0 0-.781 2.532 3.9 3.9 0 0 0 .781 2.532 2.53 2.53 0 0 0 2.081.984 2.44 2.44 0 0 0 1.621-.544 2.52 2.52 0 0 0 .841-1.49h3.432a5.34 5.34 0 0 1-1.881 3.488q-1.551 1.255-4.013 1.255M120.239 25.326a6.6 6.6 0 0 1-.794-3.266 6.6 6.6 0 0 1 .794-3.265 5.4 5.4 0 0 1 2.248-2.188 7.76 7.76 0 0 1 6.742 0 5.4 5.4 0 0 1 2.248 2.188 6.6 6.6 0 0 1 .794 3.265 6.56 6.56 0 0 1-.794 3.28 5.43 5.43 0 0 1-2.232 2.174 7.76 7.76 0 0 1-6.741 0 5.4 5.4 0 0 1-2.265-2.188m8.65-3.266a3.8 3.8 0 0 0-.818-2.531 2.98 2.98 0 0 0-3.404-.718 3 3 0 0 0-.999.718 3.8 3.8 0 0 0-.814 2.531 3.8 3.8 0 0 0 .814 2.532 3 3 0 0 0 2.202.97 2.98 2.98 0 0 0 2.201-.97c.57-.717.861-1.616.821-2.532zM145.57 28.141h-2.955l-.31-1.467a4.339 4.339 0 0 1-3.573 1.611 4.8 4.8 0 0 1-3.482-1.314q-1.335-1.312-1.335-4.39V15.98h3.336v6.197c0 1.108.193 1.938.58 2.499a2.03 2.03 0 0 0 1.788.84 2.27 2.27 0 0 0 1.938-.934c.461-.624.687-1.498.687-2.615V15.98h3.336zM146.754 18.795v-2.816h2.002v-3.412h3.335v3.412h2.769v2.816h-2.769v5.337c-.03.33.067.661.27.924a1.24 1.24 0 0 0 .914.283H155v2.816h-2.739q-3.482 0-3.479-3.48v-5.88zM22.32 9 5 19v-6l12.128-7zM29.256 13v3.462L8 28.73 5 27v-3.257l21.423-12.372zM12.103 31.103l17.153-9.898V27l-12.128 7z"/></svg>