<svg xmlns="http://www.w3.org/2000/svg" width="128" height="32" fill="none"><path fill="#fff" d="M33.057 9.253h2.84v10.818h5.261v2.442h-8.101zM42.437 20.26a5.25 5.25 0 0 1-.635-2.612c-.019-.91.2-1.811.635-2.612a4.33 4.33 0 0 1 1.798-1.75 6.21 6.21 0 0 1 5.396 0 4.36 4.36 0 0 1 1.799 1.75 5.3 5.3 0 0 1 .632 2.612 5.3 5.3 0 0 1-.632 2.624 4.4 4.4 0 0 1-1.799 1.74 6.21 6.21 0 0 1-5.396 0 4.33 4.33 0 0 1-1.798-1.751m6.92-2.612a3.04 3.04 0 0 0-.665-2.025 2.19 2.19 0 0 0-1.759-.766 2.17 2.17 0 0 0-1.75.777 3.03 3.03 0 0 0-.654 2.025 3.03 3.03 0 0 0 .654 2.025 2.17 2.17 0 0 0 1.75.777 2.19 2.19 0 0 0 1.759-.787 3.04 3.04 0 0 0 .664-2.026M53.794 20.26a5.25 5.25 0 0 1-.635-2.612c-.019-.91.2-1.811.635-2.612a4.33 4.33 0 0 1 1.799-1.75 6.2 6.2 0 0 1 5.392 0 4.33 4.33 0 0 1 1.8 1.75c.434.8.653 1.701.634 2.612.02.915-.198 1.82-.635 2.624a4.35 4.35 0 0 1-1.798 1.74 6.2 6.2 0 0 1-5.393 0 4.33 4.33 0 0 1-1.8-1.751m6.92-2.612a3.04 3.04 0 0 0-.654-2.025 2.387 2.387 0 0 0-3.523 0 3.04 3.04 0 0 0-.64 2.025c-.034.732.197 1.451.65 2.026a2.385 2.385 0 0 0 3.523 0c.451-.576.68-1.295.643-2.026M67.563 9.253v7.675l3.824-4.144h2.992l-3.47 3.805 3.667 5.924h-3.092l-2.46-3.936-1.46 1.569v2.367h-2.67V9.253zM77.861 20.317c.431.286.94.43 1.457.41.46.024.919-.067 1.335-.266a.85.85 0 0 0 .501-.8.7.7 0 0 0-.227-.569c-.19-.14-.41-.23-.643-.267a18 18 0 0 0-1.363-.197 13.4 13.4 0 0 1-2.135-.435 3 3 0 0 1-1.364-.833 2.18 2.18 0 0 1-.512-1.516c-.007-.601.18-1.189.534-1.675.372-.506.88-.897 1.465-1.126a5.6 5.6 0 0 1 2.177-.398q1.989.018 3.202.851a2.88 2.88 0 0 1 1.316 2.311h-2.535a1.2 1.2 0 0 0-.576-.9c-.4-.247-.865-.369-1.335-.349a2.3 2.3 0 0 0-1.22.283.86.86 0 0 0-.464.758.58.58 0 0 0 .246.51c.195.126.414.21.643.248.267.048.707.107 1.334.168q1.97.23 3.021.843 1.05.616 1.049 2.11c.009.603-.188 1.19-.558 1.666a3.53 3.53 0 0 1-1.553 1.108 6.3 6.3 0 0 1-2.3.39q-2.025 0-3.293-.9a3.05 3.05 0 0 1-1.335-2.453h2.517a1.37 1.37 0 0 0 .616 1.028M89.918 22.628a5.5 5.5 0 0 1-2.65-.617 4.27 4.27 0 0 1-1.75-1.75 5.4 5.4 0 0 1-.615-2.613 5.4 5.4 0 0 1 .614-2.62 4.27 4.27 0 0 1 1.761-1.743 5.5 5.5 0 0 1 2.669-.616q1.95 0 3.178.995a4.27 4.27 0 0 1 1.516 2.754h-2.773a2.04 2.04 0 0 0-.68-1.145 1.9 1.9 0 0 0-1.27-.427 2.03 2.03 0 0 0-1.666.777 3.13 3.13 0 0 0-.624 2.025 3.13 3.13 0 0 0 .624 2.026 2.03 2.03 0 0 0 1.666.787c.47.017.931-.138 1.297-.435.356-.307.594-.729.672-1.193h2.746a4.27 4.27 0 0 1-1.505 2.791q-1.24 1.005-3.21 1.004M96.191 20.26a5.26 5.26 0 0 1-.635-2.612c-.018-.91.2-1.811.635-2.612a4.33 4.33 0 0 1 1.799-1.75 6.2 6.2 0 0 1 5.393 0 4.33 4.33 0 0 1 1.799 1.75c.434.8.653 1.701.635 2.612.02.915-.199 1.82-.635 2.624a4.35 4.35 0 0 1-1.786 1.74 6.2 6.2 0 0 1-5.393 0c-.764-.392-1.395-1-1.812-1.751m6.92-2.612a3.04 3.04 0 0 0-.654-2.025 2.4 2.4 0 0 0-1.761-.777 2.39 2.39 0 0 0-1.761.777 3.04 3.04 0 0 0-.651 2.025c-.034.732.197 1.451.65 2.026a2.385 2.385 0 0 0 3.523 0 3.04 3.04 0 0 0 .656-2.026zM116.456 22.513h-2.364l-.248-1.174a3.48 3.48 0 0 1-2.858 1.289 3.84 3.84 0 0 1-2.786-1.052q-1.068-1.049-1.068-3.511v-5.281h2.669v4.958q0 1.328.464 1.998a1.62 1.62 0 0 0 1.43.673 1.82 1.82 0 0 0 1.551-.747q.551-.75.55-2.092v-4.79h2.668zM117.403 15.036v-2.252h1.602v-2.73h2.668v2.73h2.215v2.252h-2.215v4.27a1.05 1.05 0 0 0 .216.739.98.98 0 0 0 .731.226H124v2.253h-2.191q-2.786 0-2.783-2.784v-4.704zM17.856 7.2 4 15.2v-4.8l9.703-5.6zM23.405 10.4v2.77L6.4 22.984 4 21.6v-2.605l17.139-9.898zM9.682 24.882l13.723-7.918V21.6l-9.702 5.6z"/></svg>