<svg xmlns="http://www.w3.org/2000/svg" width="32" height="32" fill="none"><path fill="#fff" d="m23.057 14.276-8.203 8.203a14 14 0 0 0-5.333-5.333L19.825 6.842c.528-.528.792-.792 1.096-.891.268-.087.556-.087.824 0 .305.099.569.363 1.097.891l2.316 2.316c.528.528.792.792.891 1.097.087.268.087.556 0 .824-.099.304-.363.568-.89 1.096l-.216.216 2.195 2.195a2 2 0 0 1 0 2.828l-3.529 3.529a1.333 1.333 0 1 1-1.885-1.886L24.78 16zM7.681 19.622l-.998 2.997c-.435 1.303-.652 1.954-.497 2.387.134.377.43.674.808.808.433.155 1.084-.062 2.387-.496l2.997-1c.15-.05.27-.09.37-.125a11.3 11.3 0 0 0-4.941-4.94z"/></svg>